# xmcd
#
# Track frame offsets:
#	150
#	11128
#	20738
#	29922
#	42092
#	53975
#	66898
#	80132
#	92759
#	103966
#	116104
#	125967
#	136423
#	148933
#	162201
#	172601
#	185460
#	199973
#	210129
#	221114
#	231427
#	243029
#	253283
#	266449
#	278997
#	291879
#
# Disc length: 4064
#
# Revision: 1
# Processed by: cddbd v1.5.1PL0 Copyright (c) Steve Scherf et al.
# Submitted via: VisiTrax 2.9.10.228 - For more info visit www.synapsa.com
# Normalized: r0:DSETVAR1
#
DISCID=9c0fde1a
DTITLE=Various Artist - Moaning, Groaning, Crying - A Galaxy Of Soul
DYEAR=1900
DGENRE=
TTITLE0=Rodger Collins - She's Looking Good
TTITLE1=Fuller Brothers, The - Morning Groaning And Crying
TTITLE2=Pat Hunt - Super Cool [You're Just Super Fool]
TTITLE3=Ozz and The Sperlings - Daddy Rollin' Stone
TTITLE4=Harold Andrews - You're A Winner
TTITLE5=Casanova II, The - Maybe They're Right
TTITLE6=Claude Huey - Drifting
TTITLE7=Right Kind, The - The Right Kind Of Guy
TTITLE8=Buddy Conner - Half Way Loving
TTITLE9=Sonny Rhodes - You Better Stop
TTITLE10=Little Ronnie and The Chromatics - I Was Wrong Pt. 1
TTITLE11=Ebonys, The - Don't Knock Me
TTITLE12=Casanova II, The - Love's Philosophy
TTITLE13=Lenny Williams - I Couldn't Find Anybody
TTITLE14=Rodger Collins - Hands Off My Girl
TTITLE15=Gail Anderson - I Can't Stop It
TTITLE16=Isaiah Smith - As Long As You're In Circulation
TTITLE17=Little Ronnie and The Chromatics - Get To Stepping [And Don't Come Back]
TTITLE18=Right Kind, The - I've Been Changed
TTITLE19=Charles Brown - Cry No More
TTITLE20=Casanova II, The - I Was A Fool
TTITLE21=Sonny Rhodes - I Was Kiddin'
TTITLE22=Gail Anderson - My Turn Now
TTITLE23=Rodger Collins - She's A Good Woman
TTITLE24=Claude Huey - Didn't We Have Some Good Times?
TTITLE25=Sugar Pie DeSanto - My Illusions
EXTD=
EXTT0=
EXTT1=
EXTT2=
EXTT3=
EXTT4=
EXTT5=
EXTT6=
EXTT7=
EXTT8=
EXTT9=
EXTT10=
EXTT11=
EXTT12=
EXTT13=
EXTT14=
EXTT15=
EXTT16=
EXTT17=
EXTT18=
EXTT19=
EXTT20=
EXTT21=
EXTT22=
EXTT23=
EXTT24=
EXTT25=
PLAYORDER=
